<?xml version="1.0" encoding="UTF-8" standalone="no"?>
<svg
   width="130"
   height="130"
   viewBox="0 0 121 130"
   fill="none"
   version="1.1"
   id="svg44"
   sodipodi:docname="app-icon.svg"
   inkscape:version="1.2.2 (b0a84865, 2022-12-01)"
   xmlns:inkscape="http://www.inkscape.org/namespaces/inkscape"
   xmlns:sodipodi="http://sodipodi.sourceforge.net/DTD/sodipodi-0.dtd"
   xmlns="http://www.w3.org/2000/svg"
   xmlns:svg="http://www.w3.org/2000/svg">
  <sodipodi:namedview
     id="namedview46"
     pagecolor="#505050"
     bordercolor="#eeeeee"
     borderopacity="1"
     inkscape:showpageshadow="0"
     inkscape:pageopacity="0"
     inkscape:pagecheckerboard="0"
     inkscape:deskcolor="#505050"
     showgrid="false"
     inkscape:zoom="5.5861436"
     inkscape:cx="52.451212"
     inkscape:cy="84.584292"
     inkscape:window-width="1795"
     inkscape:window-height="1205"
     inkscape:window-x="763"
     inkscape:window-y="376"
     inkscape:window-maximized="0"
     inkscape:current-layer="svg44" />
  <rect
     width="130"
     height="130"
     fill="url(#paint0_linear_2_2)"
     x="-4.5"
     id="rect2" />
  <path
     fill="#f570bd"
     opacity="1"
     d="m 26.029735,12.498373 c 2.292431,-0.532171 4.751532,0.06725 6.704776,1.333352 2.219331,1.435694 4.108246,3.339229 5.701836,5.441599 4.833405,6.38021 7.921168,13.897862 10.234068,21.509082 2.23395,7.596602 3.61701,15.494377 3.561454,23.430163 -0.128655,4.441586 -0.58188,9.038143 -2.698869,13.026504 -1.219316,2.26904 -3.386015,4.2486 -6.029328,4.541002 -2.035117,0.18129 -4.09655,-0.447374 -5.789556,-1.567274 -2.494189,-1.628679 -4.538078,-3.853857 -6.26325,-6.263249 -2.953258,-4.03807 -5.137501,-8.573222 -7.020569,-13.190248 -3.660871,-9.427038 -5.932834,-19.456423 -6.128743,-29.588148 0.04093,-4.728138 0.391818,-9.637566 2.523428,-13.941721 1.04095,-2.160851 2.886007,-4.005906 5.204753,-4.731062 m 1.157912,4.058538 c -1.25148,0.38597 -2.11699,1.500021 -2.666705,2.63454 -1.53511,3.166713 -1.868448,6.73694 -2.000029,10.204826 -0.157906,9.889031 2.014649,19.713736 5.462067,28.944863 1.944473,4.97668 4.280764,9.865639 7.570285,14.105467 1.356745,1.760259 2.95326,3.388937 4.880188,4.520533 1.219316,0.692993 2.950335,1.020483 4.06731,-0.03801 1.874296,-1.663767 2.470796,-4.274916 2.985424,-6.628751 1.3392,-8.234038 0.09649,-16.64644 -1.824589,-24.687492 -1.924003,-7.450401 -4.61995,-14.789689 -8.777904,-21.29563 -1.710552,-2.593604 -3.646252,-5.134578 -6.263249,-6.871445 -0.99709,-0.654979 -2.228103,-1.128671 -3.432798,-0.888901 z"
     id="path403"
     style="stroke-width:0.292401" />
  <path
     fill="#f570bd"
     opacity="1"
     d="m 89.852295,12.653346 c 1.970788,-0.573108 4.242752,-0.520476 5.965,0.704688 2.98542,1.87722 4.263225,5.409436 5.055635,8.675564 1.23101,5.997163 0.92106,12.193159 0.1345,18.22541 -1.552655,10.450442 -4.710595,20.754685 -9.979677,29.947801 -2.260267,3.719351 -4.853872,7.406539 -8.517668,9.868563 -2.076052,1.423997 -4.78077,2.19009 -7.245718,1.441541 -2.482491,-0.853813 -4.324624,-2.994195 -5.310018,-5.371422 -2.184243,-5.026389 -2.283658,-10.6522 -2.070205,-16.041168 0.371349,-6.772028 1.690082,-13.473878 3.655023,-19.956428 1.728096,-5.67552 3.991285,-11.207765 6.982557,-16.342341 1.997105,-3.26613 4.225207,-6.494246 7.257415,-8.894866 1.219315,-0.970774 2.561441,-1.830436 4.073158,-2.257342 m 0.874282,4.114094 c -1.377213,0.520476 -2.505884,1.511717 -3.576075,2.494189 -2.34214,2.315822 -4.152107,5.111185 -5.766166,7.965026 -3.038055,5.552712 -5.222298,11.532331 -6.83928,17.640606 -1.672539,6.587815 -2.739805,13.38031 -2.549744,20.196198 0.178365,3.447419 0.5234,7.005949 2.134534,10.12003 0.660827,1.210543 1.7895,2.540972 3.309989,2.42401 2.231026,-0.154964 3.926957,-1.836283 5.444523,-3.312912 3.640404,-3.944501 6.128744,-8.783752 8.236961,-13.678561 2.108219,-5.073172 3.731048,-10.348101 4.827554,-15.73122 1.09358,-5.27493 1.7164,-10.675593 1.53803,-16.067484 -0.17544,-3.038055 -0.47076,-6.143364 -1.68716,-8.967965 -0.511699,-1.242709 -1.271943,-2.485417 -2.505879,-3.117005 -0.801182,-0.418134 -1.751488,-0.230997 -2.567288,0.03509 z"
     id="path405"
     style="stroke-width:0.292401" />
  <path
     fill="#f570bd"
     opacity="1"
     d="m 54.497983,64.411404 c 3.672569,-0.277783 7.359755,-0.283631 11.032323,0.0058 0.274859,1.447389 0.564337,2.894779 0.847966,4.339245 -4.236903,-0.412288 -8.503047,-0.418135 -12.737026,0.0029 0.286554,-1.447389 0.561412,-2.900628 0.856737,-4.348015 z"
     id="path407"
     style="stroke-width:0.292401" />
  <path
     fill="#f570bd"
     opacity="1"
     d="m 20.360803,81.04907 c 1.50587,-2.40062 3.424025,-4.529306 5.631659,-6.30711 0.798257,1.198848 1.660843,2.353836 2.58191,3.462039 -3.190106,2.695945 -5.894822,6.295413 -6.581967,10.500151 -0.754396,4.02345 0.736852,8.178481 3.245661,11.31303 3.725199,4.73983 9.18142,7.75742 14.742902,9.84517 11.418295,4.02052 24.061753,4.40942 35.757827,1.35967 4.122867,-1.05265 8.096609,-2.69303 11.766252,-4.84803 4.257372,-2.62869 8.236958,-6.21061 10.003068,-11.011848 1.29534,-3.48543 0.97077,-7.459173 -0.731,-10.74577 -1.298269,-2.462024 -3.09654,-4.646266 -5.245694,-6.409449 0.929838,-1.10528 1.7895,-2.269038 2.59653,-3.467887 3.891874,3.213497 7.157999,7.514729 8.184329,12.541117 1.10821,4.810012 -0.18713,9.982601 -2.982505,13.991427 -2.33629,3.55268 -5.684288,6.30126 -9.24282,8.56153 -4.687202,2.8246 -9.862714,4.79539 -15.196125,5.99131 -11.889061,2.68718 -24.55591,2.14038 -36.091164,-1.84505 -5.757394,-2.08483 -11.286714,-5.11996 -15.547009,-9.58201 -2.578984,-2.8363 -4.716441,-6.21354 -5.459142,-10.023536 -1.020483,-4.54685 0.05263,-9.438733 2.567288,-13.324754 z"
     id="path409"
     style="stroke-width:0.292401" />
  <defs
     id="defs42">
    <filter
       id="filter0_di_2_2"
       x="21"
       y="27"
       width="79"
       height="83"
       filterUnits="userSpaceOnUse"
       color-interpolation-filters="sRGB">
      <feFlood
         flood-opacity="0"
         result="BackgroundImageFix"
         id="feFlood8" />
      <feColorMatrix
         in="SourceAlpha"
         type="matrix"
         values="0 0 0 0 0 0 0 0 0 0 0 0 0 0 0 0 0 0 127 0"
         result="hardAlpha"
         id="feColorMatrix10" />
      <feOffset
         dy="4"
         id="feOffset12" />
      <feGaussianBlur
         stdDeviation="2"
         id="feGaussianBlur14" />
      <feComposite
         in2="hardAlpha"
         operator="out"
         id="feComposite16" />
      <feColorMatrix
         type="matrix"
         values="0 0 0 0 0.261224 0 0 0 0 0.16597 0 0 0 0 0.662652 0 0 0 0.4 0"
         id="feColorMatrix18" />
      <feBlend
         mode="normal"
         in2="BackgroundImageFix"
         result="effect1_dropShadow_2_2"
         id="feBlend20" />
      <feBlend
         mode="normal"
         in="SourceGraphic"
         in2="effect1_dropShadow_2_2"
         result="shape"
         id="feBlend22" />
      <feColorMatrix
         in="SourceAlpha"
         type="matrix"
         values="0 0 0 0 0 0 0 0 0 0 0 0 0 0 0 0 0 0 127 0"
         result="hardAlpha"
         id="feColorMatrix24" />
      <feOffset
         dy="4"
         id="feOffset26" />
      <feGaussianBlur
         stdDeviation="2"
         id="feGaussianBlur28" />
      <feComposite
         in2="hardAlpha"
         operator="arithmetic"
         k2="-1"
         k3="1"
         id="feComposite30" />
      <feColorMatrix
         type="matrix"
         values="0 0 0 0 0.337255 0 0 0 0 0.227451 0 0 0 0 0.8 0 0 0 0.05 0"
         id="feColorMatrix32" />
      <feBlend
         mode="normal"
         in2="shape"
         result="effect2_innerShadow_2_2"
         id="feBlend34" />
    </filter>
    <linearGradient
       id="paint0_linear_2_2"
       x1="61"
       y1="130"
       x2="61"
       y2="-91.5"
       gradientUnits="userSpaceOnUse">
      <stop
         offset="0.0755157"
         stop-color="#ffffff"
         id="stop37"
         style="stop-color:#191b22;stop-opacity:1;" />
      <stop
         offset="0.52009398"
         stop-color="#ffffff"
         id="stop39"
         style="stop-color:#191b22;stop-opacity:1;" />
    </linearGradient>
  </defs>
</svg>
