<svg xmlns="http://www.w3.org/2000/svg" xmlns:xlink="http://www.w3.org/1999/xlink" width="79" height="79" viewBox="0 0 79 79"><symbol id="logo-symbol-icon"><path fill="#f570bd" opacity="1" d="m 10.169519,49.423568 c 1.107324,-1.765269 2.517818,-3.330574 4.141177,-4.637862 0.586989,0.881559 1.221281,1.730867 1.898577,2.545771 -2.345808,1.982433 -4.33469,4.629261 -4.839975,7.721167 -0.554736,2.958598 0.541837,6.013953 2.38666,8.318908 2.739284,3.485383 6.751453,5.704332 10.841026,7.239535 8.396314,2.956447 17.693536,3.242417 26.294112,0.999816 3.031703,-0.774051 5.953749,-1.980282 8.652179,-3.564938 3.13061,-1.932979 6.056956,-4.566906 7.355643,-8.097442 0.952515,-2.562972 0.713848,-5.485018 -0.537535,-7.901781 -0.954665,-1.810421 -2.277003,-3.416578 -3.857359,-4.713115 0.683746,-0.812755 1.315888,-1.668511 1.909328,-2.550071 2.861842,2.363008 5.263553,5.52587 6.018253,9.221968 0.814904,3.536988 -0.137609,7.340592 -2.193147,10.288439 -1.717965,2.612425 -4.17988,4.633561 -6.796606,6.295622 -3.44668,2.07704 -7.252435,3.526236 -11.174297,4.405645 -8.742487,1.975983 -18.05691,1.573906 -26.539228,-1.35674 C 19.494693,72.105437 15.42877,69.873587 12.296011,66.592467 10.399584,64.506827 8.8278289,62.023411 8.2816925,59.221774 7.531292,55.8783 8.3203973,52.281109 10.169519,49.423568 Z" id="path409" style="stroke-width:0.215014" /><path fill="#f570bd" opacity="1" d="m 35.271906,37.189249 c 2.700582,-0.204264 5.411912,-0.208565 8.112493,0.0043 0.202115,1.064321 0.414979,2.128643 0.623543,3.190814 -3.115559,-0.303171 -6.252619,-0.30747 -9.366028,0.0022 0.210715,-1.064321 0.412828,-2.132943 0.629992,-3.197264 z" id="path407" style="stroke-width:0.215014" /><path fill="#f570bd" opacity="1" d="m 61.269298,-0.87044978 c 1.449197,-0.42142912 3.119859,-0.38272552 4.386294,0.51818394 2.195297,1.38039324 3.13491,3.97776654 3.717599,6.37947814 0.90521,4.4099437 0.677296,8.9660997 0.09891,13.4018467 -1.141726,7.684614 -3.463881,15.261722 -7.338441,22.021775 -1.662061,2.734983 -3.56924,5.446315 -6.26337,7.256736 -1.526601,1.04712 -3.515485,1.610458 -5.328056,1.060021 -1.825472,-0.627842 -3.180064,-2.201747 -3.904662,-3.949814 -1.606158,-3.696098 -1.679262,-7.832975 -1.522302,-11.795691 0.273068,-4.979734 1.242783,-9.907863 2.68768,-14.674733 1.270736,-4.173429 2.934946,-8.241502 5.134544,-12.0171534 1.468549,-2.4017116 3.106958,-4.7754708 5.336657,-6.54073802 0.89661,-0.7138479 1.883527,-1.34599042 2.995151,-1.65991136 M 61.912196,2.154803 c -1.012719,0.3827256 -1.842674,1.111624 -2.629627,1.834072 -1.722265,1.7029143 -3.053204,3.7584519 -4.240084,5.8569922 -2.233999,4.0831228 -3.840158,8.4801678 -5.029188,12.9718188 -1.229882,4.844274 -2.014684,9.839059 -1.874925,14.851044 0.131159,2.535021 0.384877,5.151745 1.569606,7.441649 0.485932,0.89016 1.315888,1.868475 2.433962,1.782469 1.64056,-0.113952 2.887644,-1.35029 4.003569,-2.436112 2.67693,-2.900545 4.506702,-6.459033 6.056956,-10.058375 1.550254,-3.730499 2.743583,-7.609359 3.549888,-11.567774 0.804153,-3.87886 1.262134,-7.850176 1.130975,-11.815042 C 66.754316,8.7815461 66.537151,6.4980937 65.642691,4.421054 65.266416,3.5072426 64.707378,2.5934312 63.800017,2.1290002 63.210878,1.8215297 62.512081,1.959139 61.912191,2.1547994 Z" id="path405" style="stroke-width:0.215014" /><path fill="#f570bd" opacity="1" d="m 14.338104,-0.98440838 c 1.685712,-0.39132572 3.493984,0.049459 4.93028,0.98046636 1.63196,1.05572132 3.020952,2.45546452 4.192781,4.00141832 3.554189,4.6916133 5.82474,10.2196337 7.525505,15.8164577 1.64271,5.586075 2.659727,11.393614 2.618875,17.229104 -0.09461,3.26607 -0.427879,6.646096 -1.984583,9.578892 -0.89661,1.668513 -2.489868,3.12416 -4.433597,3.339174 -1.496501,0.13331 -3.012352,-0.328972 -4.257285,-1.152477 -1.834073,-1.197631 -3.337024,-2.83389 -4.60561,-4.605609 C 16.152826,41.233669 14.546668,37.898796 13.161976,34.503719 10.469995,27.571653 8.7993327,20.19666 8.655273,12.746411 8.6853741,9.2696292 8.9433923,5.6595373 10.510847,2.4945255 11.276299,0.90556868 12.63304,-0.45117154 14.338104,-0.98440838 m 0.851457,2.98440068 c -0.920262,0.2838187 -1.556704,1.1030238 -1.960932,1.9372795 -1.128825,2.3286064 -1.373941,4.9539324 -1.470698,7.5040022 -0.116115,7.271786 1.481449,14.496271 4.016469,21.284275 1.429846,3.659545 3.147811,7.254586 5.566723,10.372296 0.997667,1.294386 2.171646,2.492016 3.588591,3.324122 0.89661,0.509584 2.169495,0.7504 2.99085,-0.02795 1.378242,-1.223431 1.816871,-3.14351 2.195297,-4.874376 0.984766,-6.054806 0.07096,-12.24077 -1.34169,-18.153667 C 27.359377,17.887406 25.376943,12.490543 22.319438,7.7064748 21.061604,5.7992963 19.638209,3.9308214 17.71383,2.6536357 16.980631,2.1720033 16.07542,1.8236807 15.189561,1.9999923 Z" id="path403" style="stroke-width:0.215014" /></symbol><use xlink:href="#logo-symbol-icon"/></svg>
