<svg width="65" height="65" viewBox="0 0 61 65" fill="none" xmlns="http://www.w3.org/2000/svg">
<path fill="#f570bd" opacity="1" d="m 9.8103581,0.23132644 c 1.4106849,-0.32748046 2.9239329,0.0413849 4.1258939,0.82050046 1.365702,0.8834776 2.528077,2.05485 3.508719,3.3485777 2.974315,3.9261669 4.874421,8.5522784 6.297702,13.2359684 1.374698,4.674694 2.225787,9.53472 2.1916,14.418137 -0.07917,2.733203 -0.35807,5.56177 -1.660794,8.016074 -0.750326,1.396291 -2.08364,2.614446 -3.710246,2.79438 -1.252343,0.11156 -2.52088,-0.275299 -3.562699,-0.964448 C 15.465694,40.898282 14.207953,39.528982 13.14634,38.046323 11.329004,35.56143 9.9848944,32.770649 8.8261174,29.929486 6.5733397,24.128403 5.17525,17.956656 5.054694,11.721932 5.0798848,8.8123942 5.295806,5.7912969 6.6075272,3.1426637 7.2480934,1.8129491 8.3834789,0.67756355 9.8103581,0.23132644 M 10.522898,2.7288148 C 9.7527791,2.9663281 9.2201735,3.6518779 8.881897,4.350023 7.9372418,6.2987117 7.7321167,8.4957098 7.6511463,10.629731 c -0.097165,6.085378 1.2397474,12.131172 3.3611727,17.811698 1.196564,3.062482 2.634239,6.070984 4.6585,8.680032 0.834895,1.083204 1.817337,2.085438 3.003104,2.781784 0.750326,0.426445 1.815537,0.627971 2.502886,-0.02339 1.153379,-1.023826 1.520445,-2.63064 1.83713,-4.079111 0.824099,-5.066951 0.05938,-10.243661 -1.122791,-15.191855 C 20.707181,16.024162 19.048186,11.50781 16.48952,7.5042717 15.436904,5.9082542 14.245739,4.344625 12.635327,3.2758151 12.021751,2.8727623 11.264227,2.5812687 10.522898,2.7288148 Z" id="path403" style="stroke-width:0.179934" />
<path fill="#f570bd" opacity="1" d="m 49.084622,0.32669163 c 1.212757,-0.35267127 2.610847,-0.32028309 3.67066,0.43364171 1.83713,1.15517836 2.623443,3.32878496 3.111065,5.33865126 0.757523,3.6904529 0.566793,7.5032614 0.08277,11.2153064 -0.955451,6.430852 -2.898741,12.771738 -6.141158,18.428873 -1.390892,2.288764 -2.98691,4.557736 -5.241487,6.072783 -1.277533,0.87628 -2.941926,1.347708 -4.458772,0.887076 -1.527642,-0.525408 -2.661229,-1.842527 -3.267607,-3.305393 -1.34411,-3.093071 -1.405287,-6.555007 -1.273935,-9.871197 0.228516,-4.167279 1.04002,-8.291373 2.249179,-12.280517 1.063412,-3.492525 2.456103,-6.896883 4.296831,-10.0565294 1.228952,-2.0098664 2.600051,-3.9963413 4.46597,-5.473602 0.750326,-0.597382 1.576225,-1.12638886 2.506485,-1.38909297 M 49.622627,2.8583675 C 48.775136,3.1786506 48.08059,3.7886279 47.42203,4.3932073 45.980756,5.8182871 44.866963,7.5384592 43.873725,9.2946181 42.004208,12.711571 40.660098,16.391228 39.665061,20.150056 c -1.029224,4.05392 -1.685984,8.233794 -1.569027,12.428063 0.10976,2.121426 0.322083,4.311226 1.313521,6.227527 0.406651,0.744928 1.101198,1.563629 2.036856,1.491655 1.372899,-0.09536 2.416518,-1.129987 3.350377,-2.038655 2.240183,-2.427314 3.771424,-5.405227 5.06875,-8.417328 1.297327,-3.12186 2.295962,-6.367875 2.970716,-9.680466 0.672954,-3.246015 1.056214,-6.569402 0.946454,-9.887391 C 53.674747,8.4039433 53.493013,6.4930408 52.744486,4.7548752 52.429601,3.9901544 51.961772,3.2254335 51.202449,2.8367754 50.709429,2.5794693 50.124642,2.6946273 49.622626,2.8583675 Z" id="path405" style="stroke-width:0.179934" />
<path fill="#f570bd" opacity="1" d="m 27.328763,32.176866 c 2.259976,-0.170938 4.528947,-0.174537 6.788922,0.0036 0.169139,0.890675 0.347274,1.78135 0.52181,2.670226 -2.607248,-0.253708 -5.23249,-0.257306 -7.837939,0.0018 0.176336,-0.890675 0.345474,-1.784949 0.527207,-2.675623 z" id="path407" style="stroke-width:0.179934" />
<path fill="#f570bd" opacity="1" d="m 6.321887,42.415128 c 0.9266618,-1.477261 2.1070304,-2.787183 3.4655345,-3.881184 0.4912205,0.737731 1.0220265,1.448472 1.5888205,2.130423 -1.9630839,1.658994 -3.6274763,3.873986 -4.050322,6.461441 -0.46423,2.475896 0.4534345,5.032763 1.997271,6.961659 2.292363,2.916735 5.649938,4.773658 9.072288,6.058389 7.026436,2.474096 14.806796,2.713409 22.004168,0.836694 2.537074,-0.647763 4.982382,-1.657195 7.240557,-2.983311 2.619844,-1.617609 5.06875,-3.821805 6.155553,-6.776326 0.79711,-2.144817 0.597382,-4.590125 -0.449835,-6.612587 -0.798909,-1.515047 -1.905505,-2.859156 -3.228022,-3.94416 0.572191,-0.680152 1.101198,-1.39629 1.597817,-2.134021 2.394926,1.977478 4.404792,4.624312 5.036361,7.717383 0.681951,2.95992 -0.115158,6.142958 -1.83533,8.609857 -1.437675,2.186202 -3.497923,3.877585 -5.687724,5.268477 -2.884347,1.738166 -6.069184,2.950923 -9.351186,3.686854 -7.31613,1.653597 -15.110884,1.31712 -22.209293,-1.135385 C 14.125638,61.396399 10.72308,59.528681 8.1014369,56.782883 6.5144168,55.03752 5.1990969,52.959279 4.7420637,50.614735 4.1140929,47.816756 4.7744519,44.806455 6.321887,42.415128 Z" id="path409" style="stroke-width:0.179934" />
</svg>
