<svg width="261" height="66" viewBox="0 0 261 66" fill="none" xmlns="http://www.w3.org/2000/svg" xmlns:xlink="http://www.w3.org/1999/xlink">
<symbol id="logo-symbol-wordmark">
<path fill="#4db1c8" opacity="1" d="m 705.73,32.25 c 3.76,1.23 7.53,2.45 11.31,3.69 -4.1,17.97 -12.37,35.44 -25.49,48.6 -3.49,-1.95 -6.98,-3.87 -10.49,-5.78 12.93,-12.3 21.35,-29.07 24.67,-46.51 z" id="path344" transform="matrix(0.40440653,0,0,0.41013071,-131.87986,-5.3223003)" />
<path fill="#4db1c8" opacity="1" d="m 661.03,38.92 c 3.25,-1.8 6.51,-3.61 9.78,-5.41 5.4,5.06 9.97,10.95 13.52,17.46 -3.57,1.91 -7.14,3.8 -10.69,5.72 -3.2,-6.58 -7.56,-12.5 -12.61,-17.77 z" id="path346" transform="matrix(0.40440653,0,0,0.41013071,-131.87986,-5.3223003)" />
<path fill="#4db1c8" opacity="1" d="m -65.549947,-233.49805 c 10.48,-4.82 21.67,-8.3 33.17,-9.49 6.56,-0.52 13.62,-0.5 19.5,2.84 9.2100004,5.46 8.2400004,18.83 2.54,26.55 -3.91,5.95 -9.27,10.81 -15.13,14.81 -1.91,-3.7 -3.86,-7.37 -5.69,-11.1 0.05,15.06 -6.21,30.42 -18.17,39.88 -2.9,-3.19 -5.8,-6.39 -8.69,-9.59 12.39,-8.36 18.88,-25.26 14.38,-39.63 3.54,-0.88 7.08,-1.8 10.63,-2.71 1.04,3.82 1.59,7.75 1.9,11.69 5.78,-3.6 12.05,-8.24 13.53,-15.29 0.75,-3.38 -3.19,-4.5 -5.76,-4.66 -13.17,-0.99 -25.97,3.82 -37.51,9.72 -1.55,-4.35 -3.14,-8.68 -4.7,-13.02 z" id="path348" transform="matrix(0.32394524,0,0,0.32394524,80.214482,86.699823)" />
<path fill="#4db1c8" opacity="1" d="m 248.42702,-211.0942 c 22.08661,-4.1057 44.84424,-5.11791 67.21517,-3.01388 -0.47767,4.1057 -0.96671,8.20003 -1.43301,12.30572 -21.02891,-2.09265 -42.38764,-0.75062 -63.18909,2.79779 -0.87573,-4.02608 -1.74009,-8.05217 -2.59307,-12.08963 z" id="path350" style="stroke-width:1.13731" transform="matrix(0.32394524,0,0,0.32394524,80.214482,86.699823)" />
<path fill="#4db1c8" opacity="1" d="m 33.29222,-241.90681 c 3.61,-0.44 7.23,-0.88 10.84,-1.33 0.06,4.19 0.4,8.36 0.92,12.52 8.11,-0.99 16.26,-1.73 24.44,-1.78 0.07,4.18 0.12,8.36 0.21,12.54 -7.58,0.09 -15.12,0.85 -22.63,1.76 0.96,4.85 2.04,9.67 3.2,14.48 6.32,-1.04 12.63,-2.17 18.84,-3.79 0.4,4.12 0.83,8.24 1.24,12.36 -5.52,1.51 -11.15,2.6 -16.77,3.71 1.79,5.71 3.71,11.4 6.33,16.79 -3.43,1.84 -6.85,3.71 -10.29,5.54 -3.08,-6.58 -5.31,-13.52 -7.27,-20.5 -7.77,1.14 -15.56,2.22 -23.41,2.64 -0.34,-4.3 -0.68,-8.59 -1.07,-12.87 7.16,-0.31 14.26,-1.29 21.36,-2.22 -1.09,-4.86 -2.06,-9.73 -2.93,-14.63 -6.68,1.04 -13.34,2.24 -19.88,3.95 -0.67,-4.15 -1.33,-8.3 -1.99,-12.45 6.54,-1.79 13.23,-2.96 19.93,-4.02 -0.47,-4.23 -0.82,-8.46 -1.07,-12.7 z" id="path354" transform="matrix(0.32394524,0,0,0.32394524,80.214482,86.699823)" />
<path fill="#4db1c8" opacity="1" d="m 414.55786,-224.78971 c 3.9682,-1.36017 7.96135,-2.64547 11.9545,-3.95572 0.74871,3.70615 1.68462,7.37485 2.77025,10.99364 9.52117,-3.35674 19.32935,-6.21434 29.43701,-7.0504 4.49229,-0.37436 9.64595,1.27281 11.82971,5.51553 1.59726,3.03231 0.89845,6.60118 -0.0623,9.72083 -2.45828,7.52459 -7.42476,13.90116 -12.90287,19.47909 -3.58136,-2.22119 -7.16271,-4.4299 -10.74407,-6.62614 4.23024,-4.62955 10.63177,-9.27159 10.76903,-15.98507 -8.26083,-0.31197 -16.20969,3.38169 -24.0213,5.83998 4.84169,10.58184 10.4945,21.01395 18.58063,29.4994 -3.78101,1.92171 -7.52459,3.88084 -11.2557,5.85246 -7.94886,-9.00955 -13.76388,-19.65379 -18.78028,-30.49769 -2.75777,1.42256 -5.51554,2.8576 -8.24836,4.33007 -2.2087,-3.30683 -4.40493,-6.62613 -6.58869,-9.94543 3.45657,-1.83436 6.95058,-3.59385 10.4945,-5.29093 -1.23539,-3.91828 -2.32102,-7.88647 -3.23196,-11.87962 z" id="path360" style="stroke-width:1.24786" transform="matrix(0.32394524,0,0,0.32394524,80.214482,86.699823)" />
<path fill="#4db1c8" opacity="1" d="m 327.27,289.71 c 1.33,-1.29 2.67,-2.58 4.01,-3.87 1.64,2.65 3.47,5.18 5.51,7.54 -1.18,1.62 -2.36,3.24 -3.54,4.86 -2.25,-2.66 -4.26,-5.5 -5.98,-8.53 z" id="path362" transform="matrix(0.32394524,0,0,0.32394524,21.561676,-84.692088)" />
<path fill="#4db1c8" opacity="1" d="m 319.87,290.16 c 1.54,-0.9 3.08,-1.79 4.63,-2.69 1.24,2.97 2.64,5.88 4.36,8.61 -1.32,1.4 -2.64,2.81 -3.96,4.21 -1.98,-3.22 -3.67,-6.61 -5.03,-10.13 z" id="path364" transform="matrix(0.32394524,0,0,0.32394524,21.561676,-84.692088)" />
<path fill="#4db1c8" opacity="1" d="m 304.45,295.28 c 3.33,-1.98 6.64,-4.01 9.96,-6.02 9.75,19.56 16.2,40.61 21.21,61.84 -4,1.65 -7.98,3.32 -11.98,4.97 -4.58,-20.75 -10.17,-41.47 -19.19,-60.79 z" id="path366" transform="matrix(0.32394524,0,0,0.32394524,21.561676,-84.692088)" />
<path fill="#4db1c8" opacity="1" d="m 286.09,298.65 c 3.79,0.95 7.59,1.88 11.38,2.83 -1.8,18.96 -5.82,37.76 -12.53,55.6 -3.88,-2.01 -7.75,-4.04 -11.62,-6.05 7.16,-16.6 10.65,-34.51 12.77,-52.38 z" id="path368" transform="matrix(0.32394524,0,0,0.32394524,21.561676,-84.692088)" />
<path fill="#4db1c8" opacity="1" d="m 674.59,177.86 c 6.78,2.35 13.26,5.62 19.06,9.85 -1.8,2.85 -3.61,5.69 -5.41,8.53 -5.24,-4.04 -11.26,-6.85 -17.32,-9.42 1.23,-2.98 2.45,-5.97 3.67,-8.96 z" id="path352" transform="matrix(0.41861701,0,0,0.41861701,-90.945455,-66.550811)" />
<path fill="#4db1c8" opacity="1" d="m 666.7,194.08 c 6.37,1.36 12.57,3.44 18.55,6.02 -1.39,3.07 -2.8,6.13 -4.2,9.19 -5.61,-2.55 -11.5,-4.44 -17.51,-5.78 1.06,-3.14 2.1,-6.29 3.16,-9.43 z" id="path356" transform="matrix(0.41861701,0,0,0.41861701,-90.945455,-66.550811)" />
<path fill="#4db1c8" opacity="1" d="m 713.68,197.74 c 2.46,2.73 4.92,5.48 7.38,8.22 -7.88,10.37 -18.77,18.4 -30.85,23.19 -6.23,2.31 -13.73,4.02 -19.78,0.33 -3.96,-2.26 -5.64,-6.74 -6.88,-10.88 3.12,-1.35 6.26,-2.67 9.39,-3.99 1.04,2.26 1.74,5.13 4.26,6.22 3.1,1.38 6.49,0.03 9.47,-1.05 10.9,-4.49 20.47,-12.23 27.01,-22.04 z" id="path358" transform="matrix(0.41861701,0,0,0.41861701,-90.945455,-66.550811)" />
<path fill="#4db1c8" opacity="1" d="m 688.35,326.79 c 3.74,0.14 7.49,0.28 11.23,0.43 -1.5,11.2 -2,22.54 -1.58,33.83 -0.04,2.04 0.67,3.96 1.75,5.67 7.45,-4.57 11.63,-12.61 15.81,-19.97 2.4,2.96 4.79,5.93 7.18,8.91 -4.75,7.38 -9.69,15.15 -17.31,19.88 -4.06,2.49 -10.05,3.26 -13.77,-0.23 -3.48,-3.45 -4.16,-8.64 -4.6,-13.29 -0.81,-11.75 0.02,-23.54 1.29,-35.23 z" id="path370" transform="matrix(0.40040869,0,0,0.40040869,-28.786373,-121.81848)" />
<path fill="#4db1c8" opacity="1" d="m 667.23,334.73 c 3.81,0.5 7.63,0.98 11.45,1.49 1.05,14.18 -1.11,29.21 -8.97,41.33 -3.63,-1.58 -7.21,-3.23 -10.82,-4.83 7.46,-11.05 9.38,-24.94 8.34,-37.99 z" id="path372" transform="matrix(0.40040869,0,0,0.40040869,-28.786373,-121.81848)" />
<path fill="#4db1c8" opacity="1" d="m 385.38,407.38 c 1.82,-0.01 3.66,-0.01 5.49,-0.01 0.01,7.76 0,15.51 0.01,23.27 3.14,-3.86 6.26,-7.75 9.36,-11.63 2.03,-0.01 4.06,-0.01 6.09,0 -2.79,3.35 -5.56,6.72 -8.34,10.08 3.17,4.97 6.3,9.96 9.46,14.93 -2.02,-0.02 -4.04,-0.04 -6.05,-0.09 -2.16,-3.73 -4.43,-7.39 -6.67,-11.07 -1.24,1.44 -2.55,2.84 -3.61,4.44 -0.47,2.19 -0.2,4.47 -0.26,6.7 -1.84,-0.01 -3.66,-0.01 -5.49,-0.01 0.01,-12.2 0,-24.41 0.01,-36.61 z" id="path374" transform="matrix(0.55363692,0,0,0.55363692,-121.16492,-187.06339)" />
<path fill="#4db1c8" opacity="1" d="m 642.01,407.37 c 1.82,0 3.66,0 5.49,0.01 0,10.21 0,20.41 -0.01,30.62 -0.57,2.84 3.23,3.57 2.68,6.56 -2.93,0.2 -7.59,0.6 -7.96,-3.42 -0.5,-11.24 -0.07,-22.52 -0.2,-33.77 z" id="path376" transform="matrix(0.55363692,0,0,0.55363692,-121.16492,-187.06339)" />
<path fill="#4db1c8" opacity="1" d="m 413.36,408.46 c 1.98,-0.47 4.8,0.03 4.98,2.52 -0.03,3.6 -5.69,4 -7.05,1.1 -0.33,-1.55 0.33,-3.38 2.07,-3.62 z" id="path378" transform="matrix(0.55363692,0,0,0.55363692,-121.16492,-187.06339)" />
<path fill="#4db1c8" opacity="1" d="m 425.88,407.38 c 1.82,-0.01 3.65,-0.01 5.49,0 -0.01,4.41 0.1,8.84 -0.15,13.25 3.65,-2.3 8.4,-3.18 12.39,-1.24 3.59,1.76 5.12,5.91 5.43,9.67 0.49,5 -0.86,10.78 -5.19,13.81 -3.62,2.52 -8.43,2.13 -12.22,0.23 -1.81,0.86 -3.8,0.95 -5.75,1.03 -0.01,-12.25 -0.01,-24.5 0,-36.75 m 5.48,17.78 c 0.03,4.53 0,9.05 0.03,13.58 2.19,1.15 4.69,3.18 7.28,1.89 3.93,-1.78 4.91,-6.66 4.7,-10.56 -0.1,-3.07 -1.15,-6.86 -4.42,-7.9 -2.93,-0.97 -5.37,1.49 -7.59,2.99 z" id="path380" transform="matrix(0.55363692,0,0,0.55363692,-121.16492,-187.06339)" />
<path fill="#4db1c8" opacity="1" d="m 602.4,408.45 c 1.97,-0.46 4.78,0.06 4.94,2.55 -0.03,3.58 -5.74,3.98 -7.04,1.07 -0.35,-1.55 0.34,-3.42 2.1,-3.62 z" id="path382" transform="matrix(0.55363692,0,0,0.55363692,-121.16492,-187.06339)" />
<path fill="#4db1c8" opacity="1" d="m 363.56,410.26 c 2.03,-0.01 4.08,-0.01 6.12,-0.01 3.79,11.26 7.64,22.49 11.43,33.75 -1.97,-0.01 -3.92,-0.01 -5.88,-0.01 -1.06,-3.46 -2.13,-6.91 -3.2,-10.36 -3.65,-0.01 -7.3,-0.01 -10.95,0 -1.09,3.45 -2.17,6.91 -3.25,10.37 -1.9,-0.01 -3.8,-0.01 -5.69,-0.01 3.79,-11.25 7.64,-22.48 11.42,-33.73 m 2.98,5.64 c -1.33,4.82 -2.85,9.59 -4.38,14.35 2.93,0 5.86,0 8.8,0 -1.5,-4.77 -3,-9.55 -4.42,-14.35 z" id="path384" transform="matrix(0.55363692,0,0,0.55363692,-121.16492,-187.06339)" />
<path fill="#4db1c8" opacity="1" d="m 521.69,411.69 c 5.66,-3.68 13.42,-2.32 18.43,1.9 -0.93,1.12 -1.9,2.21 -2.86,3.29 -2.95,-1.95 -6.49,-4.51 -10.2,-3.06 -3.37,0.87 -4.61,5.77 -1.75,7.92 4.16,3.11 9.82,3.67 13.61,7.35 3.74,3.94 2.5,11.06 -2.21,13.69 -6.55,3.6 -15.13,1.92 -20.5,-3.09 1.14,-1.14 2.3,-2.26 3.53,-3.31 3.33,2.86 7.96,5.83 12.46,3.77 3.23,-1.14 4.34,-5.86 1.88,-8.26 -4.17,-3.45 -10.18,-3.86 -13.98,-7.83 -3.4,-3.49 -2.46,-9.78 1.59,-12.37 z" id="path386" transform="matrix(0.55363692,0,0,0.55363692,-121.16492,-187.06339)" />
<path fill="#4db1c8" opacity="1" d="m 554.43,418.64 c 4.34,-0.93 9.33,0.11 12.22,3.68 3.99,4.94 4.14,12.64 0.47,17.8 -3.55,4.95 -11,5.82 -16.1,2.91 -8.95,-5.46 -7.35,-22.13 3.41,-24.39 m 0.94,3.85 c -5.04,2.96 -5.37,10.29 -3,15.09 1.43,3.04 5.69,4.75 8.37,2.21 3.7,-3.13 3.92,-8.81 2.45,-13.1 -1.02,-3.04 -4.59,-5.98 -7.82,-4.2 z" id="path388" transform="matrix(0.55363692,0,0,0.55363692,-121.16492,-187.06339)" />
<path fill="#4db1c8" opacity="1" d="m 412,419 c 1.83,0 3.66,-0.01 5.5,0 0.01,8.33 -0.01,16.66 0.01,24.99 -1.84,0 -3.68,0 -5.51,0.01 0,-8.33 0,-16.67 0,-25 z" id="path390" transform="matrix(0.55363692,0,0,0.55363692,-121.16492,-187.06339)" />
<path fill="#4db1c8" opacity="1" d="m 454.92,421.49 c 4.48,-2.53 9.96,-4.23 15.01,-2.42 3.09,1.21 4.53,4.66 4.71,7.78 0.27,5.71 0.02,11.43 0.11,17.14 -1.58,0 -3.16,0 -4.73,0.01 L 470,442.08 c -3.56,2.05 -7.89,3.48 -11.93,1.98 -4.73,-1.64 -5.65,-8.79 -1.83,-11.83 3.73,-3.01 8.72,-3.38 13.27,-4.16 -0.56,-2.25 -0.91,-5.31 -3.61,-5.97 -3.27,-0.67 -6.19,1.58 -9.08,2.72 -0.66,-1.11 -1.28,-2.21 -1.9,-3.33 m 5.51,12.89 c -1.97,1.94 -1.25,6.05 1.64,6.67 2.76,0.69 5.05,-1.58 7.2,-2.94 -0.02,-2.37 -0.03,-4.73 -0.04,-7.08 -3.02,0.76 -6.48,1.04 -8.8,3.35 z" id="path392" transform="matrix(0.55363692,0,0,0.55363692,-121.16492,-187.06339)" />
<path fill="#4db1c8" opacity="1" d="m 578.94,420.99 c 4.67,-3.75 11.74,-3.43 16.37,0.22 -0.99,1.07 -1.97,2.14 -2.98,3.19 -2.05,-1.17 -4.34,-3.35 -6.86,-2.1 -7.08,2.92 -7.3,15.11 -0.38,18.32 2.94,1.45 5.71,-0.94 8.14,-2.31 0.84,1.04 1.68,2.09 2.51,3.16 -5.17,4.3 -13.93,4.55 -18.44,-0.8 -4.38,-5.66 -3.97,-14.96 1.64,-19.68 z" id="path394" transform="matrix(0.55363692,0,0,0.55363692,-121.16492,-187.06339)" />
<path fill="#4db1c8" opacity="1" d="m 601,419 c 1.83,-0.01 3.66,0 5.51,0.01 -0.01,8.32 -0.02,16.64 0.01,24.97 -1.85,0.01 -3.69,0.01 -5.52,0.03 0,-8.34 0,-16.68 0,-25.01 z" id="path396" transform="matrix(0.55363692,0,0,0.55363692,-121.16492,-187.06339)" />
<path fill="#4db1c8" opacity="1" d="m 614.32,421.51 c 4.35,-2.52 9.63,-4.12 14.6,-2.6 3.33,1.1 4.95,4.73 5.1,8.01 0.27,5.71 0.02,11.43 0.1,17.15 -1.86,-0.35 -4.84,0.87 -5.21,-1.83 -3.48,2.14 -7.87,3.29 -11.79,1.69 -4.64,-1.91 -5.22,-9.17 -1.16,-11.99 3.73,-2.73 8.51,-3.12 12.93,-3.87 -0.57,-2.33 -1,-5.5 -3.85,-6.04 -3.24,-0.42 -6.06,1.72 -8.99,2.75 -0.43,-0.82 -1.3,-2.46 -1.73,-3.27 m 5.8,12.57 c -2.19,1.75 -1.83,5.92 0.97,6.85 2.88,1.04 5.4,-1.4 7.58,-2.93 -0.04,-2.33 -0.06,-4.65 -0.08,-6.97 -2.9,0.71 -6.12,1.03 -8.47,3.05 z" id="path398" transform="matrix(0.55363692,0,0,0.55363692,-121.16492,-187.06339)" />
<path fill="#4db1c8" opacity="1" d="m 492.78,436.79 c 3.01,-1.93 7.87,-0.87 8.05,3.21 0.74,4.37 -5.59,6.75 -8.12,3.32 -1.81,-1.92 -0.71,-4.44 0.07,-6.53 z" id="path400" transform="matrix(0.55363692,0,0,0.55363692,-121.16492,-187.06339)" />
<path fill="#f570bd" opacity="1" d="m 382.2,36.19 c 7.84,-1.82 16.25,0.23 22.93,4.56 7.59,4.91 14.05,11.42 19.5,18.61 16.53,21.82 27.09,47.53 35,73.56 7.64,25.98 12.37,52.99 12.18,80.13 -0.44,15.19 -1.99,30.91 -9.23,44.55 -4.17,7.76 -11.58,14.53 -20.62,15.53 -6.96,0.62 -14.01,-1.53 -19.8,-5.36 -8.53,-5.57 -15.52,-13.18 -21.42,-21.42 -10.1,-13.81 -17.57,-29.32 -24.01,-45.11 C 364.21,169 356.44,134.7 355.77,100.05 c 0.14,-16.17 1.34,-32.96 8.63,-47.68 3.56,-7.39 9.87,-13.7 17.8,-16.18 m 3.96,13.88 c -4.28,1.32 -7.24,5.13 -9.12,9.01 -5.25,10.83 -6.39,23.04 -6.84,34.9 -0.54,33.82 6.89,67.42 18.68,98.99 6.65,17.02 14.64,33.74 25.89,48.24 4.64,6.02 10.1,11.59 16.69,15.46 4.17,2.37 10.09,3.49 13.91,-0.13 6.41,-5.69 8.45,-14.62 10.21,-22.67 4.58,-28.16 0.33,-56.93 -6.24,-84.43 -6.58,-25.48 -15.8,-50.58 -30.02,-72.83 -5.85,-8.87 -12.47,-17.56 -21.42,-23.5 -3.41,-2.24 -7.62,-3.86 -11.74,-3.04 z" id="path403" transform="matrix(0.18340576,0,0,0.18340576,-64.661512,-6.5135086)" />
<path fill="#f570bd" opacity="1" d="m 600.47,36.72 c 6.74,-1.96 14.51,-1.78 20.4,2.41 10.21,6.42 14.58,18.5 17.29,29.67 4.21,20.51 3.15,41.7 0.46,62.33 -5.31,35.74 -16.11,70.98 -34.13,102.42 -7.73,12.72 -16.6,25.33 -29.13,33.75 -7.1,4.87 -16.35,7.49 -24.78,4.93 -8.49,-2.92 -14.79,-10.24 -18.16,-18.37 -7.47,-17.19 -7.81,-36.43 -7.08,-54.86 1.27,-23.16 5.78,-46.08 12.5,-68.25 5.91,-19.41 13.65,-38.33 23.88,-55.89 6.83,-11.17 14.45,-22.21 24.82,-30.42 4.17,-3.32 8.76,-6.26 13.93,-7.72 m 2.99,14.07 c -4.71,1.78 -8.57,5.17 -12.23,8.53 -8.01,7.92 -14.2,17.48 -19.72,27.24 -10.39,18.99 -17.86,39.44 -23.39,60.33 -5.72,22.53 -9.37,45.76 -8.72,69.07 0.61,11.79 1.79,23.96 7.3,34.61 2.26,4.14 6.12,8.69 11.32,8.29 7.63,-0.53 13.43,-6.28 18.62,-11.33 12.45,-13.49 20.96,-30.04 28.17,-46.78 7.21,-17.35 12.76,-35.39 16.51,-53.8 3.74,-18.04 5.87,-36.51 5.26,-54.95 -0.6,-10.39 -1.61,-21.01 -5.77,-30.67 -1.75,-4.25 -4.35,-8.5 -8.57,-10.66 -2.74,-1.43 -5.99,-0.79 -8.78,0.12 z" id="path405" transform="matrix(0.18340576,0,0,0.18340576,-64.661512,-6.5135086)" />
<path fill="#f570bd" opacity="1" d="m 479.56,213.73 c 12.56,-0.95 25.17,-0.97 37.73,0.02 0.94,4.95 1.93,9.9 2.9,14.84 -14.49,-1.41 -29.08,-1.43 -43.56,0.01 0.98,-4.95 1.92,-9.92 2.93,-14.87 z" id="path407" transform="matrix(0.18340576,0,0,0.18340576,-64.661512,-6.5135086)" />
<path fill="#f570bd" opacity="1" d="m 362.65,270.63 c 5.15,-8.21 11.71,-15.49 19.26,-21.57 2.73,4.1 5.68,8.05 8.83,11.84 -10.91,9.22 -20.16,21.53 -22.51,35.91 -2.58,13.76 2.52,27.97 11.1,38.69 12.74,16.21 31.4,26.53 50.42,33.67 39.05,13.75 82.29,15.08 122.29,4.65 14.1,-3.6 27.69,-9.21 40.24,-16.58 14.56,-8.99 28.17,-21.24 34.21,-37.66 4.43,-11.92 3.32,-25.51 -2.5,-36.75 -4.44,-8.42 -10.59,-15.89 -17.94,-21.92 3.18,-3.78 6.12,-7.76 8.88,-11.86 13.31,10.99 24.48,25.7 27.99,42.89 3.79,16.45 -0.64,34.14 -10.2,47.85 -7.99,12.15 -19.44,21.55 -31.61,29.28 -16.03,9.66 -33.73,16.4 -51.97,20.49 -40.66,9.19 -83.98,7.32 -123.43,-6.31 -19.69,-7.13 -38.6,-17.51 -53.17,-32.77 -8.82,-9.7 -16.13,-21.25 -18.67,-34.28 -3.49,-15.55 0.18,-32.28 8.78,-45.57 z" id="path409" transform="matrix(0.18340576,0,0,0.18340576,-64.661512,-6.5135086)" />
</symbol><use xlink:href="#logo-symbol-wordmark"/>
</svg>